<svg width="25" height="28" viewBox="0 0 25 28" fill="none" xmlns="http://www.w3.org/2000/svg">
<path d="M12.1739 28C11.8371 28 11.5164 27.9438 11.2247 27.8423C10.9525 27.7479 10.6968 27.6106 10.473 27.4312L10.468 27.4271L10.4666 27.426L10.4628 27.4229L10.4603 27.4209L10.4576 27.4187L10.4523 27.4144L0.713103 19.4142C-0.237701 18.6332 -0.237701 17.3669 0.713103 16.5858C1.66391 15.8047 3.20566 15.8047 4.15646 16.5858L9.73915 21.1716V2.00002C9.73907 0.895388 10.8291 0 12.1739 0C13.5186 0 14.6088 0.895388 14.6088 2.00002V21.1715L20.1914 16.5858C21.1421 15.8047 22.684 15.8047 23.6347 16.5858C24.5855 17.3668 24.5855 18.6332 23.6347 19.4142L13.8955 27.4143L13.8902 27.4186L13.8875 27.4207L13.885 27.4228L13.8813 27.4258L13.8799 27.427L13.8751 27.4309C13.8483 27.4523 13.821 27.4733 13.7933 27.4935C13.5894 27.6429 13.3623 27.7594 13.1222 27.8425L13.1198 27.8434L13.1172 27.8443C12.827 27.9447 12.5084 28 12.1739 28Z" fill="#135432"/>
</svg>
