<svg width="67" height="74" viewBox="0 0 67 74" fill="none" xmlns="http://www.w3.org/2000/svg">
<path d="M0.147513 43.7996C-0.938054 32.1147 4.05254 21.5304 12.33 14.8059C15.5565 12.1825 20.3813 14.429 20.3813 18.5753C20.3813 20.0981 19.6576 21.5003 18.4815 22.4501C12.6165 27.2296 9.08836 34.7683 9.94777 43.091C11.0635 53.9316 19.748 62.7066 30.5735 63.9128C44.701 65.4959 56.7025 54.4291 56.7025 40.6183C56.7025 33.2907 53.3101 26.7321 48.018 22.4351C46.842 21.4852 46.1333 20.083 46.1333 18.5753C46.1333 14.4742 50.8827 12.1523 54.0791 14.7155C61.6479 20.8218 66.5028 30.1546 66.5028 40.6183C66.5028 59.7514 50.2494 75.1755 30.8148 73.7733C14.7424 72.6425 1.64017 59.8419 0.147513 43.7996ZM33.2422 0C30.5283 0 28.3421 2.20129 28.3421 4.90013V27.4709C28.3421 30.1848 30.5434 32.371 33.2422 32.371C35.9411 32.371 38.1424 30.1697 38.1424 27.4709V4.90013C38.1424 2.20129 35.9561 0 33.2422 0Z" fill="#135432"/>
</svg>
