<svg width="161" height="41" viewBox="0 0 161 41" fill="none" xmlns="http://www.w3.org/2000/svg">
<path d="M54.7131 36.471C53.1022 36.471 51.617 36.0572 50.2574 35.2296C48.9125 34.402 47.8337 33.301 47.0209 31.9266C46.2229 30.5374 45.8239 29.0152 45.8239 27.3601V25.2763C45.8239 25.1137 45.8977 25.0324 46.0455 25.0324H51.1441C51.2623 25.0324 51.3214 25.1137 51.3214 25.2763V27.3601C51.3214 28.3502 51.654 29.2074 52.319 29.9315C52.984 30.6409 53.7821 30.9956 54.7131 30.9956C55.6589 30.9956 56.4643 30.6335 57.1294 29.9093C57.7944 29.1704 58.1269 28.3207 58.1269 27.3601C58.1269 26.2517 57.4028 25.2837 55.9545 24.4561C55.718 24.3083 55.4077 24.131 55.0234 23.9241C54.654 23.7024 54.2106 23.4511 53.6934 23.1704C53.1761 22.8896 52.6737 22.6162 52.186 22.3502C51.6983 22.0694 51.2254 21.8034 50.7672 21.5521C49.1121 20.5767 47.8781 19.3575 47.0652 17.8945C46.2672 16.4166 45.8682 14.7614 45.8682 12.9289C45.8682 11.2441 46.282 9.72196 47.1096 8.36235C47.9372 7.01751 49.016 5.95346 50.3461 5.1702C51.6909 4.37216 53.1466 3.97314 54.7131 3.97314C56.3239 3.97314 57.8018 4.37216 59.1466 5.1702C60.4915 5.98301 61.5629 7.06184 62.3609 8.40668C63.1738 9.75152 63.5802 11.2589 63.5802 12.9289V16.6531C63.5802 16.7713 63.5211 16.8304 63.4028 16.8304H58.3043C58.186 16.8304 58.1269 16.7713 58.1269 16.6531L58.0826 12.9289C58.0826 11.8648 57.7501 11.0003 57.085 10.3353C56.42 9.67024 55.6294 9.33772 54.7131 9.33772C53.7821 9.33772 52.984 9.69241 52.319 10.4018C51.654 11.1111 51.3214 11.9535 51.3214 12.9289C51.3214 13.919 51.5283 14.7466 51.9421 15.4117C52.3707 16.0767 53.1466 16.7122 54.2697 17.3181C54.388 17.3772 54.6614 17.525 55.0899 17.7614C55.5185 17.9979 55.9914 18.2639 56.5087 18.5595C57.0407 18.8403 57.521 19.0989 57.9496 19.3354C58.3782 19.557 58.6368 19.69 58.7254 19.7344C60.2328 20.5767 61.4225 21.6112 62.2944 22.8378C63.1811 24.0645 63.6245 25.5719 63.6245 27.3601C63.6245 29.0891 63.2255 30.6409 62.4274 32.0153C61.6146 33.3897 60.5358 34.4759 59.191 35.2739C57.8461 36.072 56.3535 36.471 54.7131 36.471Z" fill="url(#paint0_linear_1_220)"/>
<path d="M69.8226 36.0276H64.724C64.5762 36.0276 64.5023 35.9537 64.5023 35.8059L64.591 4.61601C64.591 4.49778 64.6501 4.43867 64.7684 4.43867H73.5024C76.2808 4.43867 78.4754 5.28843 80.0862 6.98795C81.7119 8.67269 82.5247 10.9707 82.5247 13.8821C82.5247 16.0102 82.1035 17.8649 81.2611 19.4462C80.404 21.0127 79.2956 22.2245 77.936 23.0817C76.5763 23.9388 75.0985 24.3674 73.5024 24.3674H70.0443V35.8059C70.0443 35.9537 69.9704 36.0276 69.8226 36.0276ZM73.5024 9.82541L70.0443 9.86975V18.8698H73.5024C74.463 18.8698 75.298 18.4117 76.0074 17.4954C76.7167 16.5644 77.0714 15.3599 77.0714 13.8821C77.0714 12.6998 76.7537 11.7318 76.1182 10.9781C75.4827 10.2097 74.6108 9.82541 73.5024 9.82541Z" fill="url(#paint1_linear_1_220)"/>
<path d="M88.3459 36.0276H83.203C83.0552 36.0276 82.9813 35.9537 82.9813 35.8059L83.0257 4.61601C83.0257 4.49778 83.0848 4.43867 83.203 4.43867H88.3016C88.4198 4.43867 88.4789 4.49778 88.4789 4.61601L88.5232 35.8059C88.5232 35.9537 88.4641 36.0276 88.3459 36.0276Z" fill="url(#paint2_linear_1_220)"/>
<path d="M95.1869 36.0276H90.6425C90.406 36.0276 90.2878 35.9242 90.2878 35.7173L90.2435 4.79335C90.2435 4.55689 90.3617 4.43867 90.5981 4.43867H94.6992L102.369 22.328L102.148 4.79335C102.148 4.55689 102.281 4.43867 102.547 4.43867H107.047C107.224 4.43867 107.313 4.55689 107.313 4.79335L107.357 35.7616C107.357 35.9389 107.283 36.0276 107.135 36.0276H103.145L95.2755 19.3132L95.608 35.6729C95.608 35.9094 95.4676 36.0276 95.1869 36.0276Z" fill="url(#paint3_linear_1_220)"/>
<path d="M114.353 36.0276H109.21C109.092 36.0276 109.033 35.9537 109.033 35.8059L109.121 4.61601C109.121 4.49778 109.181 4.43867 109.299 4.43867H118.476C120.117 4.43867 121.624 4.83768 122.998 5.63572C124.373 6.43376 125.466 7.5052 126.279 8.85004C127.107 10.1949 127.521 11.7171 127.521 13.4166C127.521 14.525 127.351 15.5299 127.011 16.4314C126.671 17.3329 126.272 18.094 125.814 18.7147C125.37 19.3354 124.964 19.7935 124.595 20.0891C126.235 21.9068 127.055 24.0423 127.055 26.4955L127.099 35.8059C127.099 35.9537 127.026 36.0276 126.878 36.0276H121.735C121.617 36.0276 121.558 35.9833 121.558 35.8946V26.4955C121.558 25.4019 121.173 24.4561 120.405 23.658C119.636 22.86 118.691 22.461 117.567 22.461H114.575L114.53 35.8059C114.53 35.9537 114.471 36.0276 114.353 36.0276ZM118.476 9.86975H114.575V17.0077H118.476C119.407 17.0077 120.235 16.6604 120.959 15.9659C121.698 15.2713 122.067 14.4215 122.067 13.4166C122.067 12.456 121.713 11.6284 121.003 10.9338C120.294 10.2244 119.452 9.86975 118.476 9.86975Z" fill="url(#paint4_linear_1_220)"/>
<path d="M143.517 36.0276H128.842C128.724 36.0276 128.664 35.9537 128.664 35.8059L128.709 4.61601C128.709 4.49778 128.768 4.43867 128.886 4.43867H143.473C143.591 4.43867 143.65 4.51256 143.65 4.66034V9.73674C143.65 9.85497 143.591 9.91408 143.473 9.91408H134.162V17.0077H143.473C143.591 17.0077 143.65 17.0669 143.65 17.1851L143.694 22.328C143.694 22.4462 143.635 22.5053 143.517 22.5053H134.162V30.4414H143.517C143.635 30.4414 143.694 30.5153 143.694 30.663V35.8503C143.694 35.9685 143.635 36.0276 143.517 36.0276Z" fill="url(#paint5_linear_1_220)"/>
<path d="M160.311 36.0276H145.636C145.518 36.0276 145.459 35.9537 145.459 35.8059L145.503 4.61601C145.503 4.49778 145.562 4.43867 145.68 4.43867H160.267C160.385 4.43867 160.444 4.51256 160.444 4.66034V9.73674C160.444 9.85497 160.385 9.91408 160.267 9.91408H150.956V17.0077H160.267C160.385 17.0077 160.444 17.0669 160.444 17.1851L160.488 22.328C160.488 22.4462 160.429 22.5053 160.311 22.5053H150.956V30.4414H160.311C160.429 30.4414 160.488 30.5153 160.488 30.663V35.8503C160.488 35.9685 160.429 36.0276 160.311 36.0276Z" fill="url(#paint6_linear_1_220)"/>
<rect x="0.697236" y="0.697236" width="39.1575" height="39.1575" rx="19.5787" fill="url(#paint7_linear_1_220)" stroke="#92FFC5" stroke-width="0.605528"/>
<path d="M8.66992 21.5901C8.66992 21.2541 8.94103 20.9868 9.27451 20.9868H12.356C12.6895 20.9868 12.9606 21.2541 12.9606 21.5901C12.9606 25.6771 16.289 29.0055 20.3772 29.0055C24.4655 29.0055 27.7939 25.6771 27.7939 21.5901C27.7939 17.4993 24.4668 14.1747 20.3772 14.1747C19.9445 14.1747 19.5117 14.2103 19.0841 14.288V16.3843C19.0841 16.6299 18.9364 16.8514 18.7137 16.943C18.4833 17.036 18.2262 16.9825 18.0505 16.8107L11.9003 12.6448C11.6661 12.4093 11.6661 12.0313 11.9003 11.7958L18.0518 7.63624C18.2249 7.46314 18.482 7.41223 18.7124 7.50387C18.9351 7.59806 19.0828 7.81698 19.0828 8.06136V9.95403C19.5156 9.90567 19.9483 9.88148 20.376 9.88148C26.8304 9.88148 32.0833 15.1344 32.0833 21.5888C32.0833 28.042 26.8304 33.2949 20.376 33.2949C13.9228 33.2961 8.66992 28.0432 8.66992 21.5901Z" fill="url(#paint8_linear_1_220)"/>
<defs>
<linearGradient id="paint0_linear_1_220" x1="75.5755" y1="3.97314" x2="71.7794" y2="73.6369" gradientUnits="userSpaceOnUse">
<stop offset="0.141085" stop-color="#43DB8B"/>
<stop offset="0.780997" stop-color="#24754A"/>
</linearGradient>
<linearGradient id="paint1_linear_1_220" x1="75.5755" y1="3.97314" x2="71.7794" y2="73.6369" gradientUnits="userSpaceOnUse">
<stop offset="0.141085" stop-color="#43DB8B"/>
<stop offset="0.780997" stop-color="#24754A"/>
</linearGradient>
<linearGradient id="paint2_linear_1_220" x1="75.5755" y1="3.97314" x2="71.7794" y2="73.6369" gradientUnits="userSpaceOnUse">
<stop offset="0.141085" stop-color="#43DB8B"/>
<stop offset="0.780997" stop-color="#24754A"/>
</linearGradient>
<linearGradient id="paint3_linear_1_220" x1="75.5755" y1="3.97314" x2="71.7794" y2="73.6369" gradientUnits="userSpaceOnUse">
<stop offset="0.141085" stop-color="#43DB8B"/>
<stop offset="0.780997" stop-color="#24754A"/>
</linearGradient>
<linearGradient id="paint4_linear_1_220" x1="139.903" y1="15.0749" x2="137.753" y2="48.9359" gradientUnits="userSpaceOnUse">
<stop stop-color="white"/>
<stop offset="1" stop-color="#999999"/>
</linearGradient>
<linearGradient id="paint5_linear_1_220" x1="139.903" y1="15.0749" x2="137.753" y2="48.9359" gradientUnits="userSpaceOnUse">
<stop stop-color="white"/>
<stop offset="1" stop-color="#999999"/>
</linearGradient>
<linearGradient id="paint6_linear_1_220" x1="139.903" y1="15.0749" x2="137.753" y2="48.9359" gradientUnits="userSpaceOnUse">
<stop stop-color="white"/>
<stop offset="1" stop-color="#999999"/>
</linearGradient>
<linearGradient id="paint7_linear_1_220" x1="15.7345" y1="20.3769" x2="44.3962" y2="53.8828" gradientUnits="userSpaceOnUse">
<stop stop-color="#43DB8B"/>
<stop offset="1" stop-color="#24754A"/>
</linearGradient>
<linearGradient id="paint8_linear_1_220" x1="8.66992" y1="12.606" x2="28.9981" y2="38.0641" gradientUnits="userSpaceOnUse">
<stop stop-color="#1F9658"/>
<stop offset="1" stop-color="#167342"/>
</linearGradient>
</defs>
</svg>
